<?xml version="1.0" standalone="no"?>
<!DOCTYPE svg PUBLIC "-//W3C//DTD SVG 20010904//EN"
 "http://www.w3.org/TR/2001/REC-SVG-20010904/DTD/svg10.dtd">
<svg version="1.0" xmlns="http://www.w3.org/2000/svg"
 width="512.000000pt" height="512.000000pt" viewBox="0 0 512.000000 512.000000"
 preserveAspectRatio="xMidYMid meet">

<g transform="translate(0.000000,512.000000) scale(0.100000,-0.100000)"
fill="#000000" stroke="none">
<path d="M3590 5102 c-81 -21 -137 -54 -220 -129 -703 -633 -2239 -2029 -2279
-2071 -102 -106 -143 -251 -121 -424 13 -105 51 -187 121 -260 40 -42 1585
-1446 2284 -2076 126 -114 262 -158 404 -133 362 65 500 493 245 759 -33 34
-486 449 -1009 922 -522 474 -950 865 -950 870 0 5 428 396 950 870 523 473
976 888 1009 922 176 184 175 456 -4 635 -61 61 -127 98 -211 118 -82 19 -138
18 -219 -3z"/>
</g>
</svg>
