<svg width="18" height="20" viewBox="0 0 18 20" fill="none" xmlns="http://www.w3.org/2000/svg">
<path fill-rule="evenodd" clip-rule="evenodd" d="M0 5C0 2.23858 2.23858 0 5 0H13C15.7614 0 18 2.23858 18 5V18.3932C18 19.6041 16.6391 20.316 15.6444 19.6252L9.57039 15.4072C9.22743 15.169 8.77257 15.169 8.4296 15.4072L2.35559 19.6252C1.36093 20.316 0 19.6041 0 18.3932V5ZM5 2C3.34315 2 2 3.34315 2 5V17.4372L7.28881 13.7644C8.31772 13.0499 9.68228 13.0499 10.7112 13.7644L16 17.4372V5C16 3.34315 14.6569 2 13 2H5Z" fill="#14142B"/>
</svg>
