<svg width="24" height="24" viewBox="0 0 24 24" fill="none" xmlns="http://www.w3.org/2000/svg">
<path d="M6.25967 10.65C7.00525 10.65 7.60967 11.2544 7.60967 12C7.60967 12.7456 7.00525 13.35 6.25967 13.35C5.51408 13.35 4.90967 12.7456 4.90967 12C4.90967 11.2544 5.51408 10.65 6.25967 10.65Z" fill="#14142B"/>
<path d="M12 10.65C12.7456 10.65 13.35 11.2544 13.35 12C13.35 12.7456 12.7456 13.35 12 13.35C11.2544 13.35 10.65 12.7456 10.65 12C10.65 11.2544 11.2544 10.65 12 10.65Z" fill="#14142B"/>
<path d="M17.7404 10.65C18.486 10.65 19.0904 11.2544 19.0904 12C19.0904 12.7456 18.486 13.35 17.7404 13.35C16.9948 13.35 16.3904 12.7456 16.3904 12C16.3904 11.2544 16.9948 10.65 17.7404 10.65Z" fill="#14142B"/>
<path fill-rule="evenodd" clip-rule="evenodd" d="M12 22.3C17.6885 22.3 22.3 17.6885 22.3 12C22.3 6.31147 17.6885 1.7 12 1.7C6.31147 1.7 1.7 6.31147 1.7 12C1.7 17.6885 6.31147 22.3 12 22.3ZM12 24C18.6274 24 24 18.6274 24 12C24 5.37258 18.6274 0 12 0C5.37258 0 0 5.37258 0 12C0 18.6274 5.37258 24 12 24Z" fill="#14142B"/>
</svg>
