<svg width="24" height="24" viewBox="0 0 24 24" fill="none" xmlns="http://www.w3.org/2000/svg">
<path fill-rule="evenodd" clip-rule="evenodd" d="M12 17.5C9.62716 17.5 7.37875 18.0271 5.84002 18.5021C4.95923 18.774 4.31201 19.5717 4.15361 20.5899L3.98814 21.6537C3.90325 22.1994 3.39204 22.573 2.84631 22.4881C2.30059 22.4032 1.92701 21.892 2.0119 21.3463L2.17738 20.2825C2.43614 18.6191 3.53764 17.1197 5.2501 16.5911C6.89437 16.0835 9.35393 15.5 12 15.5C14.6461 15.5 17.1057 16.0835 18.7499 16.5911C20.4624 17.1197 21.5639 18.6191 21.8227 20.2825L21.9881 21.3463C22.073 21.892 21.6994 22.4032 21.1537 22.4881C20.608 22.573 20.0968 22.1994 20.0119 21.6537L19.8464 20.5899C19.688 19.5717 19.0408 18.774 18.16 18.5021C16.6213 18.0271 14.3729 17.5 12 17.5Z" fill="#14142B"/>
<path fill-rule="evenodd" clip-rule="evenodd" d="M12 3C9.79086 3 8 4.79086 8 7C8 9.20914 9.79086 11 12 11C14.2091 11 16 9.20914 16 7C16 4.79086 14.2091 3 12 3ZM6 7C6 3.68629 8.68629 1 12 1C15.3137 1 18 3.68629 18 7C18 10.3137 15.3137 13 12 13C8.68629 13 6 10.3137 6 7Z" fill="#14142B"/>
</svg>
